<svg width="1975" height="1097" viewBox="0 0 1975 1097" fill="none" xmlns="http://www.w3.org/2000/svg">
<g opacity="0.5">
<path d="M1 91C1 91 166 143.5 213.5 123.5C261 103.5 118.5 240.5 166 253.5C213.5 266.5 163 358 293.5 391C424 424 118.5 463 166 498.5C213.5 534 156.5 559 196 576C235.5 593 122 691.5 166 703.5C210 715.5 213.5 786 278.5 738.5" stroke="white" stroke-width="2"/>
<path d="M177 869C177 869 242 821.5 337 739C432 656.5 404.5 936.5 432 951.5C459.5 966.5 363.5 1184 459.5 1054C555.5 924 674.5 1004.83 704.5 1031.5C704.5 1031.5 748.5 951.5 819.5 966.5C890.5 981.5 967 1076.5 967 1076.5C967 1076.5 940 830.5 967 881.5C994 932.5 1019.5 1076.5 1019.5 1076.5" stroke="white" stroke-width="2"/>
<path d="M1068 1043.5C1068 1043.5 1120.5 848.5 1140.5 928.5C1160.5 1008.5 1233 1043.5 1233 1043.5L1318 1063.5C1318 1063.5 1281 826 1394 790C1507 754 1453 886 1453 886C1453 886 1453 958.5 1508 958.5C1563 958.5 1493 993.5 1493 993.5C1493 993.5 1633 1053.5 1615.5 1023.5C1598 993.5 1557.5 805 1598 826C1638.5 847 1763.5 1023.5 1748 958.5C1732.5 893.5 1820.5 886 1820.5 886C1820.5 886 2015.5 886 1893 928.5C1770.5 971 1893 993.5 1893 993.5C1893 993.5 1899.5 1033.5 1930.5 1008.5" stroke="white" stroke-width="2"/>
<path d="M166 4C166 4 266.5 109 293.5 91.5C320.5 74 306 184 333.5 184C361 184 358.5 229 333.5 214C308.5 199 378.5 146.5 441 146.5C503.5 146.5 378.5 44 378.5 44C378.5 44 574.5 184 576 146.5C577.5 109 702.5 91.5 748.5 91.5C794.5 91.5 724.5 196.5 748.5 184C772.5 171.5 849.5 91.5 888.5 91.5C927.5 91.5 932.5 146.5 921 171.5C909.5 196.5 900.5 284.5 921 259C941.5 233.5 1021 4 1021 4C1021 4 1041 108.5 1091 109C1141 109.5 1041 184 1041 184C1061.83 102.333 1115 -33.5 1161 76.5C1207 186.5 1208.5 11.5 1236 44C1263.5 76.5 1377.5 144.5 1398.5 171.5C1419.5 198.5 1452 76.5 1456 21.5C1460 -33.5 1475 169 1518.5 214C1562 259 1631 44 1631 44C1631 44 1638.5 161 1663.5 129C1688.5 97 1798.5 -48.5 1781 21.5C1763.5 91.5 1833.5 274 1833.5 274C1817.67 197.333 1941 75.5 1873.5 76.5" stroke="white" stroke-width="2"/>
<path d="M1886 119V206.5L1941 224L1873.5 344L1941 394L1836 436.5C1853.5 436.5 1881 453.5 1851 521.5C1821 589.5 1876.83 611.5 1908.5 614C1949.33 591.5 2013 565 1941 639C1869 713 1901 749.833 1926 759L1941 809L1926 859L1966 894" stroke="white" stroke-width="2"/>
</g>
<g opacity="0.15">
<path d="M295 227.568C295 227.568 415.614 268.328 450.336 252.801C485.059 237.273 380.892 343.637 415.614 353.73C450.336 363.823 413.421 434.862 508.816 460.483C604.211 486.103 380.892 516.382 415.614 543.944C450.336 571.505 408.67 590.915 437.544 604.113C466.418 617.312 383.45 693.785 415.614 703.102C447.778 712.418 450.336 767.153 497.851 730.275" stroke="white" stroke-width="2"/>
<path d="M423.655 831.593C423.655 831.593 471.17 794.715 540.614 730.663C610.059 666.612 589.956 883.998 610.059 895.644C630.161 907.29 559.986 1076.15 630.161 975.223C700.337 874.294 787.325 937.051 809.255 957.755C809.255 957.755 841.419 895.644 893.319 907.29C945.22 918.936 1001.14 992.692 1001.14 992.692C1001.14 992.692 981.404 801.702 1001.14 841.297C1020.88 880.893 1039.52 992.692 1039.52 992.692" stroke="white" stroke-width="2"/>
<path d="M1074.97 967.071C1074.97 967.071 1113.35 815.677 1127.97 877.787C1142.59 939.898 1195.59 967.071 1195.59 967.071L1257.72 982.599C1257.72 982.599 1230.67 798.208 1313.28 770.259C1395.88 742.309 1356.4 844.791 1356.4 844.791C1356.4 844.791 1356.4 901.079 1396.61 901.079C1436.81 901.079 1385.64 928.252 1385.64 928.252C1385.64 928.252 1487.98 974.835 1475.19 951.544C1462.4 928.252 1432.79 781.904 1462.4 798.208C1492 814.512 1583.38 951.544 1572.05 901.079C1560.72 850.614 1625.04 844.791 1625.04 844.791C1625.04 844.791 1767.59 844.791 1678.04 877.787C1588.5 910.784 1678.04 928.252 1678.04 928.252C1678.04 928.252 1682.79 959.307 1705.45 939.898" stroke="white" stroke-width="2"/>
<path d="M415.614 160.023C415.614 160.023 489.079 241.543 508.816 227.957C528.553 214.37 517.953 299.772 538.056 299.772C558.158 299.772 556.331 334.709 538.056 323.063C519.781 311.418 570.951 270.658 616.638 270.658C662.325 270.658 570.951 191.078 570.951 191.078C570.951 191.078 714.225 299.772 715.322 270.658C716.418 241.543 807.793 227.957 841.419 227.957C875.044 227.957 823.875 309.477 841.419 299.772C858.962 290.067 915.249 227.957 943.758 227.957C972.267 227.957 975.922 270.658 967.515 290.067C959.109 309.477 952.53 377.798 967.515 358C982.501 338.203 1040.61 160.023 1040.61 160.023C1040.61 160.023 1055.23 241.155 1091.78 241.543C1128.33 241.931 1055.23 299.772 1055.23 299.772C1070.46 236.367 1109.33 130.909 1142.95 216.311C1176.58 301.713 1177.68 165.846 1197.78 191.078C1217.88 216.311 1301.21 269.105 1316.57 290.067C1331.92 311.029 1355.67 216.311 1358.6 173.61C1361.52 130.909 1372.49 288.126 1404.28 323.063C1436.08 358 1486.52 191.078 1486.52 191.078C1486.52 191.078 1492 281.915 1510.28 257.071C1528.55 232.227 1608.96 119.263 1596.17 173.61C1583.38 227.957 1634.55 369.646 1634.55 369.646C1622.97 310.124 1713.13 215.534 1663.79 216.311" stroke="white" stroke-width="2"/>
<path d="M1672.93 249.307V317.24L1713.13 330.827L1663.79 423.993L1713.13 462.812L1636.38 495.808C1649.17 495.808 1669.27 509.006 1647.34 561.8C1625.41 614.594 1666.22 631.675 1689.37 633.616C1719.22 616.147 1765.76 595.573 1713.13 653.025C1660.5 710.477 1683.89 739.074 1702.16 746.191L1713.13 785.01L1702.16 823.829L1731.4 851.002" stroke="white" stroke-width="2"/>
</g>
</svg>
