<svg width="1920" height="1080" viewBox="0 0 1920 1080" fill="none" xmlns="http://www.w3.org/2000/svg">
<g opacity="0.5">
<path d="M1 95C1 95 154.668 146.719 198.906 127.017C243.144 107.314 110.431 242.277 154.668 255.084C198.906 267.891 151.874 358.03 273.412 390.539C394.95 423.049 36.7621 471.028 81 506C125.238 540.972 145.821 556.041 182.608 572.789C219.395 589.536 40.0218 721.051 81 732.872C121.978 744.694 40.464 912.794 101 866" stroke="white" stroke-opacity="0.4" stroke-width="2"/>
<path d="M245.388 855.119C245.388 855.119 24.5243 1032.44 113 951.169C201.476 869.896 457.264 921.615 482.875 936.392C508.487 951.169 419.08 1165.43 508.487 1037.37C597.894 909.301 708.721 988.932 736.661 1015.2C736.661 1015.2 777.639 936.392 843.763 951.169C909.887 965.946 981.133 1059.53 981.133 1059.53C981.133 1059.53 955.988 817.191 981.133 867.433C1006.28 917.675 1030.03 1059.53 1030.03 1059.53" stroke="white" stroke-opacity="0.4" stroke-width="2"/>
<path d="M1075.2 1027.02C1075.2 1027.02 1124.09 834.923 1142.72 913.734C1161.34 992.545 1228.87 1027.02 1228.87 1027.02L1308.03 1046.73C1308.03 1046.73 1273.57 812.758 1378.81 777.293C1484.05 741.829 1433.76 871.866 1433.76 871.866C1433.76 871.866 1433.76 943.288 1484.98 943.288C1536.2 943.288 1471.01 977.768 1471.01 977.768C1471.01 977.768 1601.39 1036.88 1585.1 1007.32C1568.8 977.768 1531.08 792.07 1568.8 812.758C1606.52 833.446 1722.93 1007.32 1708.5 943.288C1694.06 879.254 1776.02 871.866 1776.02 871.866C1776.02 871.866 1957.63 871.866 1843.54 913.734C1729.45 955.602 1843.54 977.768 1843.54 977.768C1843.54 977.768 1849.59 1017.17 1878.46 992.545" stroke="white" stroke-opacity="0.4" stroke-width="2"/>
<path d="M235.143 2.98036C235.143 2.98036 328.741 106.419 353.887 89.1793C379.033 71.9395 365.529 180.304 391.14 180.304C416.751 180.304 414.423 224.635 391.14 209.858C367.857 195.081 433.05 143.362 491.257 143.362C549.465 143.362 433.05 42.3856 433.05 42.3856C433.05 42.3856 615.589 180.304 616.986 143.362C618.383 106.419 734.798 89.1793 777.639 89.1793C820.48 89.1793 755.288 192.618 777.639 180.304C799.991 167.99 871.703 89.1793 908.025 89.1793C944.346 89.1793 949.003 143.362 938.293 167.99C927.582 192.618 919.2 279.31 938.293 254.189C957.385 229.068 1031.42 2.98036 1031.42 2.98036C1031.42 2.98036 1050.05 105.927 1096.62 106.419C1143.18 106.912 1050.05 180.304 1050.05 180.304C1069.45 99.8516 1118.97 -33.962 1161.81 74.4024C1204.65 182.767 1206.05 10.3689 1231.66 42.3856C1257.27 74.4024 1363.44 141.391 1383 167.99C1402.56 194.588 1432.83 74.4024 1436.55 20.2202C1440.28 -33.962 1454.25 165.527 1494.76 209.858C1535.27 254.189 1599.53 42.3856 1599.53 42.3856C1599.53 42.3856 1606.52 157.646 1629.8 126.122C1653.08 94.5976 1755.53 -48.739 1739.23 20.2202C1722.93 89.1793 1788.13 268.966 1788.13 268.966C1773.38 193.439 1888.24 73.4172 1825.38 74.4024" stroke="white" stroke-opacity="0.4" stroke-width="2"/>
<path d="M1837.02 116.271V202.469L1888.24 219.709L1825.38 337.925L1888.24 387.182L1790.45 429.05C1806.75 429.05 1832.36 445.797 1804.42 512.786C1776.48 579.775 1828.48 601.448 1857.97 603.91C1896 581.745 1955.3 555.639 1888.24 628.539C1821.19 701.438 1850.99 737.724 1874.27 746.754L1888.24 796.011L1874.27 845.267L1911.53 879.747" stroke="white" stroke-opacity="0.4" stroke-width="2"/>
</g>
<g opacity="0.15">
<path d="M193 223.224C193 223.224 318.905 263.378 355.15 248.082C391.395 232.785 282.659 337.568 318.905 347.511C355.15 357.453 316.616 427.436 416.195 452.676C515.774 477.915 282.659 507.744 318.905 534.896C355.15 562.047 311.656 581.168 341.797 594.17C371.937 607.173 285.33 682.509 318.905 691.687C352.479 700.865 355.15 754.786 404.749 718.456" stroke="white" stroke-opacity="0.4" stroke-width="2"/>
<path d="M327.299 818.268C327.299 818.268 376.897 781.938 449.388 718.839C521.879 655.74 500.895 869.894 521.879 881.367C542.863 892.839 469.609 1059.19 542.863 959.762C616.117 860.334 706.921 922.158 729.812 942.554C729.812 942.554 763.387 881.367 817.564 892.839C871.741 904.312 930.116 976.971 930.116 976.971C930.116 976.971 909.513 788.821 930.116 827.828C950.718 866.835 970.176 976.971 970.176 976.971" stroke="white" stroke-opacity="0.4" stroke-width="2"/>
<path d="M1007.18 951.732C1007.18 951.732 1047.25 802.588 1062.51 863.775C1077.77 924.962 1133.09 951.732 1133.09 951.732L1197.95 967.029C1197.95 967.029 1169.72 785.38 1255.94 757.846C1342.17 730.311 1300.96 831.27 1300.96 831.27C1300.96 831.27 1300.96 886.721 1342.93 886.721C1384.9 886.721 1331.48 913.49 1331.48 913.49C1331.48 913.49 1438.31 959.38 1424.96 936.435C1411.61 913.49 1380.7 769.318 1411.61 785.38C1442.51 801.441 1537.89 936.435 1526.06 886.721C1514.24 837.006 1581.39 831.27 1581.39 831.27C1581.39 831.27 1730.18 831.27 1636.71 863.775C1543.23 896.281 1636.71 913.49 1636.71 913.49C1636.71 913.49 1641.67 944.083 1665.32 924.962" stroke="white" stroke-opacity="0.4" stroke-width="2"/>
<path d="M318.905 156.684C318.905 156.684 395.592 236.992 416.195 223.607C436.798 210.222 425.733 294.354 446.717 294.354C467.701 294.354 465.794 328.772 446.717 317.3C427.641 305.827 481.055 265.673 528.746 265.673C576.437 265.673 481.055 187.277 481.055 187.277C481.055 187.277 630.615 294.354 631.759 265.673C632.904 236.992 728.286 223.607 763.387 223.607C798.488 223.607 745.074 303.915 763.387 294.354C781.7 284.794 840.456 223.607 870.215 223.607C899.975 223.607 903.79 265.673 895.015 284.794C886.24 303.915 879.372 371.221 895.015 351.717C910.657 332.214 971.321 156.684 971.321 156.684C971.321 156.684 986.582 236.609 1024.73 236.992C1062.89 237.374 986.582 294.354 986.582 294.354C1002.48 231.893 1043.05 128.002 1078.15 212.134C1113.25 296.267 1114.39 162.42 1135.38 187.277C1156.36 212.134 1243.35 264.143 1259.38 284.794C1275.4 305.445 1300.2 212.134 1303.25 170.068C1306.3 128.002 1317.75 282.882 1350.94 317.3C1384.14 351.717 1436.79 187.277 1436.79 187.277C1436.79 187.277 1442.51 276.763 1461.59 252.288C1480.66 227.814 1564.6 116.53 1551.25 170.068C1537.89 223.607 1591.31 363.19 1591.31 363.19C1579.22 304.552 1673.34 211.37 1621.83 212.134" stroke="white" stroke-opacity="0.4" stroke-width="2"/>
<path d="M1631.37 244.64V311.563L1673.34 324.948L1621.83 416.728L1673.34 454.97L1593.21 487.476C1606.57 487.476 1627.55 500.478 1604.66 552.487C1581.77 604.496 1624.37 621.322 1648.54 623.234C1679.69 606.026 1728.28 585.757 1673.34 642.355C1618.4 698.953 1642.81 727.125 1661.89 734.136L1673.34 772.378L1661.89 810.619L1692.41 837.389" stroke="white" stroke-opacity="0.4" stroke-width="2"/>
</g>
</svg>
