<svg width="1147" height="1888" viewBox="0 0 1147 1888" fill="none" xmlns="http://www.w3.org/2000/svg">
<path d="M1628.74 1653.26C1628.74 1653.26 1576.47 1589.28 1503.6 1483.18C1430.73 1377.07 1382.7 1654.4 1351.12 1661.13C1319.53 1667.85 1356.96 1904.23 1295.91 1752.1C1234.86 1599.98 1093.88 1644.42 1056.64 1661.67C1056.64 1661.67 1034.17 1572.29 959.026 1566.81C883.878 1561.32 781.633 1631.33 781.633 1631.33C781.633 1631.33 875.061 1402.03 834.26 1443.56C793.458 1485.09 729.059 1616.59 729.059 1616.59" stroke="white" stroke-opacity="0.3" stroke-width="2"/>
<path d="M-91.3081 1516.37C-91.3081 1516.37 -41.5395 1453.09 27.67 1348.01C96.8795 1242.94 145.967 1519.97 176.495 1526.99C207.023 1534.01 173.285 1769.35 230.638 1618.26C287.991 1467.18 424.39 1512.9 460.474 1530.48C460.474 1530.48 481.251 1441.57 553.664 1436.85C626.078 1432.13 725.378 1502.96 725.378 1502.96C725.378 1502.96 632.989 1273.38 672.751 1315.2C712.513 1357.02 775.93 1488.79 775.93 1488.79" stroke="white" stroke-opacity="0.3" stroke-width="2"/>
<path d="M0 1867.98C0 1867.98 69.5817 1672.79 96.089 1752.87C122.596 1832.95 218.685 1867.98 218.685 1867.98L331.342 1888C331.342 1888 282.303 1650.26 432.069 1614.23C581.836 1578.19 510.266 1710.32 510.266 1710.32C510.266 1710.32 510.266 1782.9 583.161 1782.9C656.056 1782.9 563.281 1817.93 563.281 1817.93C563.281 1817.93 748.832 1877.99 725.638 1847.96C702.444 1817.93 648.767 1629.24 702.444 1650.26C756.121 1671.28 921.792 1847.96 901.249 1782.9C880.706 1717.83 997.338 1710.32 997.338 1710.32C997.338 1710.32 1255.78 1710.32 1093.43 1752.87C931.069 1795.41 1093.43 1817.93 1093.43 1817.93C1093.43 1817.93 1102.04 1857.97 1143.13 1832.95" stroke="white" stroke-opacity="0.3" stroke-width="2"/>
<path d="M1821.23 1168.06C1821.23 1168.06 1768.95 1104.08 1696.09 997.973C1623.22 891.87 1575.19 1169.2 1543.6 1175.92C1512.02 1182.65 1549.45 1419.02 1488.4 1266.9C1427.35 1114.78 1286.37 1159.21 1249.13 1176.47C1249.13 1176.47 1226.66 1087.09 1151.52 1081.61C1076.37 1076.12 974.122 1146.12 974.122 1146.12C974.122 1146.12 1067.55 916.83 1026.75 958.36C985.947 999.889 921.548 1131.39 921.548 1131.39" stroke="white" stroke-opacity="0.3" stroke-width="2"/>
<path d="M101.181 1031.17C101.181 1031.17 150.95 967.888 220.159 862.81C289.369 757.733 338.456 1034.76 368.984 1041.79C399.512 1048.81 365.774 1284.15 423.127 1133.06C480.48 981.976 616.88 1027.69 652.963 1045.27C652.963 1045.27 673.74 956.368 746.154 951.65C818.567 946.932 917.867 1017.76 917.867 1017.76C917.867 1017.76 825.478 788.175 865.24 829.996C905.002 871.817 968.419 1003.59 968.419 1003.59" stroke="white" stroke-opacity="0.3" stroke-width="2"/>
<path d="M192.489 1382.78C192.489 1382.78 262.071 1187.58 288.578 1267.66C315.086 1347.74 411.175 1382.78 411.175 1382.78L523.831 1402.8C523.831 1402.8 474.792 1165.06 624.559 1129.02C774.325 1092.99 702.755 1225.12 702.755 1225.12C702.755 1225.12 702.755 1297.69 775.65 1297.69C848.545 1297.69 755.77 1332.73 755.77 1332.73C755.77 1332.73 941.321 1392.79 918.127 1362.76C894.933 1332.73 841.256 1144.04 894.933 1165.06C948.611 1186.08 1114.28 1362.76 1093.74 1297.69C1073.19 1232.63 1189.83 1225.12 1189.83 1225.12C1189.83 1225.12 1448.27 1225.12 1285.92 1267.66C1123.56 1310.2 1285.92 1332.73 1285.92 1332.73C1285.92 1332.73 1294.53 1372.77 1335.62 1347.74" stroke="white" stroke-opacity="0.3" stroke-width="2"/>
<path d="M1604.23 504.057C1604.23 504.057 1551.95 440.076 1479.09 333.973C1406.22 227.87 1358.19 505.199 1326.6 511.923C1295.02 518.648 1332.45 755.022 1271.4 602.901C1210.35 450.781 1069.37 495.214 1032.13 512.471C1032.13 512.471 1009.66 423.09 934.515 417.605C859.368 412.121 757.122 482.124 757.122 482.124C757.122 482.124 850.551 252.83 809.749 294.36C768.947 335.889 704.548 467.389 704.548 467.389" stroke="white" stroke-opacity="0.3" stroke-width="2"/>
<path d="M-115.819 367.168C-115.819 367.168 -66.0502 303.888 3.15928 198.81C72.3688 93.7327 121.456 370.765 151.984 377.786C182.512 384.808 148.774 620.146 206.127 469.061C263.48 317.976 399.88 363.694 435.963 381.274C435.963 381.274 456.74 292.368 529.154 287.65C601.567 282.932 700.867 353.76 700.867 353.76C700.867 353.76 608.478 124.175 648.24 165.996C688.002 207.817 751.419 339.592 751.419 339.592" stroke="white" stroke-opacity="0.3" stroke-width="2"/>
<path d="M-24.5107 718.777C-24.5107 718.777 45.071 523.582 71.5783 603.662C98.0856 683.742 194.175 718.777 194.175 718.777L306.831 738.797C306.831 738.797 257.792 501.06 407.559 465.024C557.325 428.988 485.755 561.12 485.755 561.12C485.755 561.12 485.755 633.692 558.65 633.692C631.545 633.692 538.77 668.727 538.77 668.727C538.77 668.727 724.321 728.787 701.127 698.757C677.933 668.727 624.256 480.039 677.933 501.06C731.611 522.081 897.281 698.757 876.738 633.692C856.195 568.627 972.827 561.12 972.827 561.12C972.827 561.12 1231.27 561.12 1068.92 603.662C906.559 646.205 1068.92 668.727 1068.92 668.727C1068.92 668.727 1077.53 708.767 1118.62 683.742" stroke="white" stroke-opacity="0.3" stroke-width="2"/>
<path d="M-59.8188 19.0569C-59.8188 19.0569 -7.54746 -44.9244 65.3199 -151.027C138.187 -257.13 186.216 20.1986 217.803 26.9235C249.389 33.6483 211.955 270.022 273.004 117.901C334.054 -34.2194 475.035 10.2141 512.274 27.471C512.274 27.471 534.745 -61.9102 609.892 -67.3947C685.04 -72.8792 787.286 -2.87603 787.286 -2.87603C787.286 -2.87603 693.857 -232.17 734.659 -190.64C775.46 -149.111 839.859 -17.6115 839.859 -17.6115" stroke="white" stroke-opacity="0.3" stroke-width="2"/>
<path d="M1660.23 -117.832C1660.23 -117.832 1610.46 -181.112 1541.25 -286.19C1472.04 -391.267 1422.95 -114.235 1392.42 -107.214C1361.9 -100.192 1395.63 135.146 1338.28 -15.9391C1280.93 -167.024 1144.53 -121.306 1108.44 -103.726C1108.44 -103.726 1087.67 -192.632 1015.25 -197.35C942.84 -202.068 843.54 -131.24 843.54 -131.24C843.54 -131.24 935.929 -360.825 896.167 -319.004C856.405 -277.183 792.988 -145.408 792.988 -145.408" stroke="white" stroke-opacity="0.3" stroke-width="2"/>
<path d="M1568.92 233.777C1568.92 233.777 1499.34 38.5823 1472.83 118.662C1446.32 198.742 1350.23 233.777 1350.23 233.777L1237.58 253.797C1237.58 253.797 1286.62 16.0599 1136.85 -19.976C987.082 -56.0119 1058.65 76.1198 1058.65 76.1198C1058.65 76.1198 1058.65 148.692 985.757 148.692C912.862 148.692 1005.64 183.727 1005.64 183.727C1005.64 183.727 820.086 243.787 843.28 213.757C866.474 183.727 920.152 -4.96109 866.474 16.0599C812.797 37.0809 647.126 213.757 667.669 148.692C688.213 83.6272 571.58 76.1198 571.58 76.1198C571.58 76.1198 313.134 76.1198 475.491 118.662C637.849 161.205 475.491 183.727 475.491 183.727C475.491 183.727 466.876 223.767 425.79 198.742" stroke="white" stroke-opacity="0.3" stroke-width="2"/>
</svg>
