<svg width="91" height="85" viewBox="0 0 91 85" fill="none" xmlns="http://www.w3.org/2000/svg">
<ellipse cx="45.5" cy="42.5" rx="45.5" ry="42.5" fill="#5E9EC1"/>
<path d="M62.2744 54.75C61.6744 56.25 60.5244 57.25 58.8244 57.75C57.2244 58.25 55.5244 58.15 53.7244 57.45C52.0244 56.75 50.7244 55.35 49.8244 53.25C48.5244 50.15 48.0244 47.2 48.3244 44.4C48.6244 41.6 49.4744 39.1 50.8744 36.9C52.3744 34.6 54.2244 32.8 56.4244 31.5C58.6244 30.2 61.0244 29.5 63.6244 29.4L63.9244 30.75C60.7244 31.75 58.6244 33.25 57.6244 35.25C56.6244 37.15 56.3244 39.05 56.7244 40.95C57.1244 42.85 57.7744 44.35 58.6744 45.45C59.3744 46.25 60.0744 47.1 60.7744 48C61.5744 48.9 62.1744 49.9 62.5744 51C62.9744 52.1 62.8744 53.35 62.2744 54.75ZM41.2744 54.75C40.6744 56.25 39.5244 57.25 37.8244 57.75C36.2244 58.25 34.5244 58.15 32.7244 57.45C31.0244 56.75 29.7244 55.35 28.8244 53.25C27.5244 50.15 27.0244 47.2 27.3244 44.4C27.6244 41.6 28.4744 39.1 29.8744 36.9C31.3744 34.6 33.2244 32.8 35.4244 31.5C37.6244 30.2 40.0244 29.5 42.6244 29.4L42.9244 30.75C39.7244 31.75 37.6244 33.25 36.6244 35.25C35.6244 37.15 35.3244 39.05 35.7244 40.95C36.1244 42.85 36.7744 44.35 37.6744 45.45C38.3744 46.25 39.0744 47.1 39.7744 48C40.5744 48.9 41.1744 49.9 41.5744 51C41.9744 52.1 41.8744 53.35 41.2744 54.75Z" fill="white"/>
</svg>
